<svg xmlns="http://www.w3.org/2000/svg" version="1.1" xmlns:xlink="http://www.w3.org/1999/xlink" xmlns:svgjs="http://svgjs.dev/svgjs" viewBox="0 0 800 800"><defs><filter id="uuunion-blur" x="-100%" y="-100%" width="400%" height="400%" color-interpolation-filters="sRGB">
        <feGaussianBlur in="SourceGraphic" stdDeviation="22 22" result="blur"></feGaussianBlur>
        <feDropShadow stdDeviation="0" in="blur" dx="0" dy="0" flood-color="hsl(230, 55%, 40%)" flood-opacity="0" x="0%" y="0%" width="100%" height="100%"></feDropShadow>
      </filter><filter id="uuunion-blur2" x="-100%" y="-100%" width="400%" height="400%" color-interpolation-filters="sRGB">
        <feGaussianBlur in="SourceGraphic" stdDeviation="22 22" result="blur"></feGaussianBlur>
        <feDropShadow stdDeviation="0" in="blur" dx="-0" dy="-0" flood-color="hsl(230, 55%, 40%)" flood-opacity="0" x="0%" y="0%" width="100%" height="100%"></feDropShadow>
      </filter><linearGradient gradientTransform="rotate(360, 0.5, 0.5)" x1="50%" y1="0%" x2="50%" y2="100%" id="uuunion-grad"><stop stop-color="hsl(230, 55%, 70%)" offset="10%"></stop><stop stop-color="hsl(230, 55%, 40%)" offset="90%"></stop></linearGradient><linearGradient gradientTransform="rotate(135, 0.5, 0.5)" x1="50%" y1="0%" x2="50%" y2="100%" id="uuunion-grad2"><stop stop-color="hsl(230, 55%, 70%)" offset="25%"></stop><stop stop-color="hsl(230, 55%, 40%)" offset="100%"></stop></linearGradient><linearGradient gradientTransform="rotate(333, 0.5, 0.5)" x1="50%" y1="0%" x2="50%" y2="100%" id="uuunion-grad3"><stop stop-color="hsl(230, 55%, 70%)" offset="0%"></stop><stop stop-color="hsl(230, 55%, 40%)" offset="75%"></stop></linearGradient></defs><path d="M-74.75 -81.47Q-60.91 -79.89 -47.08 -78.32 -33.25 -76.97 -19.41 -76 -5.58 -75.53 8.25 -75.62 22.08 -76.27 35.91 -77.39 49.75 -78.83 63.58 -80.43 77.41 -81.96 91.25 -83.25 105.08 -84.13 118.91 -84.49 132.75 -84.28 146.58 -83.53 160.42 -82.33 174.25 -80.84 188.08 -79.24 201.92 -77.74 215.75 -76.52 229.58 -75.74 243.42 -75.5 257.25 -75.82 271.09 -76.67 284.92 -77.94 298.75 -79.47 312.59 -81.07 326.42 -82.53 340.25 -83.67 354.09 -84.35 367.92 -84.47 381.75 -84.03 395.59 -83.09 409.42 -81.75 423.26 -80.19 437.09 -78.61 450.92 -77.2 464.76 -76.14 478.59 -75.57 492.42 -75.56 506.26 -76.11 520.09 -77.15 533.93 -78.55 547.76 -80.13 561.59 -81.69 575.43 -83.04 589.26 -84.01 603.09 -84.47 616.93 -84.36 630.76 -83.71 644.59 -82.58 658.43 -81.13 672.26 -79.54 686.1 -78 699.93 -76.72 713.76 -75.85 727.6 -75.5 741.43 -75.72 755.26 -76.48 769.1 -77.68 782.93 -79.18 796.76 -80.78 810.6 -82.28 816.91 -67.8 827.15 -53.32 840.67 -38.85 856.63 -24.37 874.05 -9.89 891.84 4.57 908.89 19.05 924.15 33.53 936.66 48 945.64 62.48 950.55 76.96 951.07 91.43 947.17 105.91 939.09 120.39 927.34 134.87 912.64 149.34 895.92 163.82 878.2 178.3 860.6 192.77 844.2 207.25 830.03 221.73 818.97 236.2 811.69 250.68 808.67 265.16 810.08 279.63 815.84 294.11 825.58 308.59 838.71 323.06 854.41 337.54 871.69 352.02 889.5 366.5 906.71 380.97 922.26 395.45 935.18 409.93 944.68 424.4 950.15 438.88 951.25 453.36 947.93 467.83 940.39 482.31 929.09 496.79 914.73 511.26 898.22 525.74 880.57 540.22 862.89 554.69 846.27 569.17 831.75 583.65 820.23 598.12 812.42 612.6 808.82 627.08 809.64 641.56 814.83 656.03 824.08 670.51 836.8 684.99 852.21 699.46 869.35 713.94 887.14 728.42 904.5 742.89 920.33 757.37 933.65 771.85 943.64 786.32 949.67 800.8 951.36 815.28 948.62 829.75 941.62 844.23 925.58 867.73 909.55 892.77 893.51 916.21 877.47 935.07 861.44 946.98 845.4 950.44 829.37 945.01 813.33 931.37 797.3 911.25 781.26 887.19 765.23 862.22 749.19 839.49 733.15 821.87 717.12 811.59 701.08 809.94 685.05 817.14 669.01 832.26 652.98 853.41 636.94 877.92 620.9 902.68 604.87 924.59 588.83 940.86 572.8 949.46 556.76 949.29 540.73 940.37 524.69 923.83 508.65 901.77 492.62 876.95 476.58 852.52 460.55 831.56 444.51 816.7 428.48 809.84 412.44 811.83 396.4 822.42 380.37 840.28 364.33 863.15 348.3 888.15 332.26 912.11 316.23 932.03 300.19 945.37 284.15 950.47 268.12 946.67 252.08 934.46 236.05 915.37 220.01 891.82 203.98 866.78 187.94 843.4 171.91 824.65 155.87 812.87 139.83 809.57 123.8 815.16 107.76 828.93 91.73 849.14 75.69 873.25 59.66 898.21 43.62 920.87 27.58 938.37 11.55 948.51 -4.48 950 -20.51 942.65 -36.55 927.4 -52.58 906.17 -68.62 881.63 -84.66 856.89 -85.19 842.22 -85.39 827.56 -85.26 812.9 -84.81 798.24 -84.05 783.58 -83.05 768.91 -81.85 754.25 -80.54 739.59 -79.19 724.93 -77.89 710.27 -76.73 695.6 -75.77 680.94 -75.07 666.28 -74.67 651.62 -74.61 636.96 -74.88 622.29 -75.47 607.63 -76.35 592.97 -77.44 578.31 -78.7 563.65 -80.04 548.98 -81.37 534.32 -82.62 519.66 -83.71 505 -84.56 490.34 -85.13 475.67 -85.38 461.01 -85.3 446.35 -84.89 431.69 -84.17 417.03 -83.19 402.36 -82.02 387.7 -80.71 373.04 -79.37 358.38 -78.06 343.72 -76.87 329.05 -75.88 314.39 -75.14 299.73 -74.71 285.07 -74.6 270.41 -74.83 255.75 -75.38 241.08 -76.22 226.42 -77.29 211.76 -78.53 197.1 -79.86 182.44 -81.2 167.77 -82.46 153.11 -83.58 138.45 -84.46 123.79 -85.08 109.13 -85.37 94.46 -85.33 79.8 -84.96 65.14 -84.28 50.48 -83.33 35.82 -82.18 21.15 -80.89 6.49 -79.55 -8.16 -78.23 -22.82 -77.02 -37.48 -76 -52.15 -75.22 -66.81 -74.75 -81.47" fill="url(#uuunion-grad)"></path><path d="M-74.75 -81.47Q-75.22 -66.81 -76 -52.15 -77.02 -37.48 -78.23 -22.82 -79.55 -8.16 -80.89 6.49 -82.18 21.15 -83.33 35.82 -84.28 50.48 -84.96 65.14 -85.33 79.8 -85.37 94.46 -85.08 109.13 -84.46 123.79 -83.58 138.45 -82.46 153.11 -81.2 167.77 -79.86 182.44 -78.53 197.1 -77.29 211.76 -76.22 226.42 -75.38 241.08 -74.83 255.75 -74.6 270.41 -74.71 285.07 -75.14 299.73 -75.88 314.39 -76.87 329.05 -78.06 343.72 -79.37 358.38 -80.71 373.04 -82.02 387.7 -71.72 396.41 -61.42 405.31 -51.12 413.92 -40.82 421.74 -30.52 428.33 -20.22 433.32 -0.91 437.21 2.42 437.45 15.05 428.64 27.47 416.86 39.69 402.66 51.69 386.79 63.49 370.12 75.09 353.59 86.51 338.08 97.76 324.37 108.87 313.07 119.86 304.55 130.76 298.95 141.6 296.13 152.42 295.73 163.25 297.16 174.12 299.71 185.07 302.6 196.14 305 207.37 306.18 218.79 305.54 230.43 302.62 242.32 297.22 254.5 289.33 266.98 279.16 279.78 267.12 292.93 253.79 306.42 239.8 320.28 225.87 334.49 212.65 349.04 200.73 363.94 190.57 379.16 182.43 394.68 176.42 410.48 172.45 426.51 170.23 442.74 169.36 459.13 169.32 475.63 169.53 492.2 169.42 508.78 168.47 525.31 166.24 541.74 162.44 558.02 156.92 574.08 149.69 589.88 140.91 605.34 130.86 620.44 119.94 635.11 108.6 649.31 97.3 663 86.49 676.14 76.53 688.71 67.72 700.69 60.21 712.06 54.06 722.8 49.17 732.93 45.36 742.45 42.34 759.44 37.22 774.81 31.43 787.92 22.03 800 9.8 781.3 -8.87 764.19 -27.55 750.1 -46.23 740.23 -64.91 735.41 -83.59 736.04 -102.27 742.07 -120.95 752.99 -139.63 738.95 -139.62 724.91 -139.67 710.86 -139.75 696.82 -139.87 682.77 -140 668.73 -140.13 654.69 -140.24 640.64 -140.32 626.6 -140.37 612.55 -140.36 598.51 -140.31 584.47 -140.22 570.42 -140.1 556.38 -139.97 542.33 -139.84 528.29 -139.73 514.25 -139.66 500.2 -139.62 486.16 -139.63 472.12 -139.69 458.07 -139.78 444.03 -139.9 429.98 -140.04 415.94 -140.16 401.9 -140.27 387.85 -140.34 373.81 -140.37 359.76 -140.35 345.72 -140.29 331.68 -140.19 317.63 -140.07 303.59 -139.93 289.54 -139.81 275.5 -139.71 261.46 -139.64 247.41 -139.62 233.37 -139.65 219.32 -139.71 205.28 -139.82 191.24 -139.94 177.19 -140.08 163.15 -140.2 149.1 -140.29 135.06 -140.35 121.02 -140.37 106.97 -140.34 92.93 -140.26 78.88 -140.16 64.84 -140.03 50.8 -139.9 36.75 -139.78 22.71 -139.68 8.66 -139.63 -5.37 -139.62 -19.41 -139.66 -33.46 -139.74 -47.5 -139.85 -61.55 -139.98 -75.59 -140.11 -89.63 -140.23 -103.68 -140.32 -117.72 -140.36 -125.91 -128.13 -108.92 -112.28 -100.2 -104.97 -91.62 -97.42 -83.14 -89.59 -74.75 -81.47" fill="url(#uuunion-grad2)" filter="url(#uuunion-blur)"></path><path d="M824.31 436.76Q834.61 433.98 844.91 429.29 855.21 422.94 865.51 415.3 875.81 406.79 886.11 397.9 896.41 389.13 906.71 380.97 922.26 395.45 935.18 409.93 944.68 424.4 950.15 438.88 951.25 453.36 947.93 467.83 940.39 482.31 929.09 496.79 914.73 511.26 898.22 525.74 880.57 540.22 862.89 554.69 846.27 569.17 831.75 583.65 820.23 598.12 812.42 612.6 808.82 627.08 809.64 641.56 814.83 656.03 824.08 670.51 836.8 684.99 852.21 699.46 869.35 713.94 887.14 728.42 904.5 742.89 920.33 757.37 933.65 771.85 943.64 786.32 949.67 800.8 951.36 815.28 948.62 829.75 941.62 844.23 926.9 865.69 912.19 888.68 897.47 910.74 882.75 929.53 868.04 943.04 853.32 949.84 838.6 949.21 823.89 941.2 809.17 926.69 794.46 907.19 779.74 884.81 765.02 861.91 750.31 840.94 735.59 824.12 720.88 813.26 706.16 809.5 691.44 813.24 676.73 824.09 662.01 840.89 647.3 861.86 632.58 884.76 617.86 907.15 603.15 926.65 588.43 941.18 573.72 949.2 559 949.85 544.28 943.06 529.57 929.56 514.85 910.79 500.14 888.73 485.42 865.74 470.7 844.28 455.99 826.61 441.27 814.63 426.56 809.61 411.84 812.08 397.12 821.78 382.41 837.68 367.69 858.08 352.97 880.82 338.26 903.47 323.54 923.62 308.83 939.13 294.11 948.34 279.39 950.27 264.68 944.72 249.96 932.28 235.25 914.28 220.53 892.62 205.81 869.62 191.1 847.73 176.38 829.27 161.67 816.21 146.95 809.94 132.23 811.13 117.52 819.65 102.8 834.6 88.09 854.38 73.37 876.88 58.65 899.72 43.94 920.46 29.22 936.89 7.18 943.53 -0.09 929.1 -0.08 918.41 -0.08 907.73 -0.12 897.04 -0.17 886.35 -0.04 870.33 0.69 865 13.73 855.48 26.59 840.6 39.25 821.2 51.71 798.49 63.96 773.94 75.99 749.18 87.8 725.84 99.4 705.4 110.8 689.05 122.01 677.62 133.06 671.5 143.96 670.59 154.74 674.37 165.43 681.88 176.07 691.87 186.68 702.87 197.31 713.37 207.99 721.91 218.77 727.22 229.67 728.34 240.74 724.69 252.02 716.11 263.54 702.88 275.32 685.69 287.41 665.55 299.83 643.72 312.59 621.59 325.72 600.57 339.23 581.91 353.12 566.67 367.39 555.58 382.04 549 397.06 546.87 412.44 548.77 428.15 553.91 444.15 561.25 460.43 569.55 476.94 577.53 493.63 583.94 510.46 587.72 527.38 588.02 544.33 584.34 561.26 576.53 578.11 564.79 594.81 549.68 611.31 532.04 627.55 512.9 643.47 493.43 659.02 474.78 674.13 458.03 688.77 444.06 702.89 433.48 716.45 426.61 729.41 423.43 741.76 423.59 753.46 426.47 764.51 431.22 774.91 436.82 784.66 442.23 793.76 446.43 817.09 441.51 824.31 436.76" fill="url(#uuunion-grad3)" filter="url(#uuunion-blur2)"></path></svg>